PathFileType	4	(X/Y/Z)	C:/Users/opensim2020/Desktop/walking_exp_matlab/subject02_walking04_straight_04.trc	
DataRate	CameraRate	NumFrames	NumMarkers	Units	OrigDataRate	OrigDataStartFrame	OrigNumFrames	
100.00	100.00	7	42	mm	100.00	3013	239	
Frame#	Time	LFHD			RFHD			LBHD			RBHD			C7			T10			CLAV			STRN			RBAK			LSHO			LUPA			LELB			LFRM			LWRA			LWRB			LFIN			RSHO			RUPA			RELB			RFRM			RWRA			RWRB			RFIN			LASI			RASI			LPSI			RPSI			LTHI			LKNE			LTIB			LANK			LHEE			LTOE			RTHI			RKNE			RTIB			RANK			RHEE			RTOE			*39			*40			*41			
		X1	Y1	Z1	X2	Y2	Z2	X3	Y3	Z3	X4	Y4	Z4	X5	Y5	Z5	X6	Y6	Z6	X7	Y7	Z7	X8	Y8	Z8	X9	Y9	Z9	X10	Y10	Z10	X11	Y11	Z11	X12	Y12	Z12	X13	Y13	Z13	X14	Y14	Z14	X15	Y15	Z15	X16	Y16	Z16	X17	Y17	Z17	X18	Y18	Z18	X19	Y19	Z19	X20	Y20	Z20	X21	Y21	Z21	X22	Y22	Z22	X23	Y23	Z23	X24	Y24	Z24	X25	Y25	Z25	X26	Y26	Z26	X27	Y27	Z27	X28	Y28	Z28	X29	Y29	Z29	X30	Y30	Z30	X31	Y31	Z31	X32	Y32	Z32	X33	Y33	Z33	X34	Y34	Z34	X35	Y35	Z35	X36	Y36	Z36	X37	Y37	Z37	X38	Y38	Z38	X39	Y39	Z39	X40	Y40	Z40	X41	Y41	Z41	X42	Y42	Z42	

90	0.890	1529.82642	205.28194	1715.39734	1389.24036	229.03670	1692.67126	1559.57275	342.59387	1660.57996	1421.73425	378.53763	1638.87744	1491.84851	423.61478	1519.22363	1480.16174	486.22534	1241.76660	1499.24426	289.78540	1441.39124	1491.04932	244.70583	1269.78113	1429.61133	492.43408	1344.37952	1668.34521	348.90533	1491.59692	1767.79651	321.85394	1301.60791	1795.33936	279.04391	1167.48694	1803.26477	210.74142	1052.62634	1757.90833	112.75772	964.51324	1799.03503	147.44919	947.24915	1799.63562	98.53382	903.16327	1303.72632	356.21561	1478.17871	1223.65369	409.45804	1293.01233	1201.94739	409.91681	1147.14441	1173.89001	388.56088	1030.00403	1178.65466	339.42645	903.42358	1157.64172	391.60443	900.19684	1144.46094	355.06049	839.00537	1620.21228	259.20425	980.87866	1362.71729	244.61441	972.98773	1524.66663	465.77869	1018.96857	1411.71411	463.98215	1017.55151	1657.16321	356.50421	671.19452	1622.02661	416.15894	475.04904	1616.58569	501.13031	298.23853	1577.16858	526.95740	75.88612	1524.58679	562.71576	49.56433	1599.44714	374.04599	33.53611	1275.15637	255.41469	673.72180	1302.63818	185.71994	476.98810	1286.32385	178.57370	290.68768	1308.07751	139.67271	99.09480	1366.43701	148.83852	36.93739	1277.27539	-17.74572	80.07690	1451.72546	309.15900	1792.88171	-3356.98755	2845.82471	1033.74011			 
91	0.900	1528.65698	195.84467	1713.78699	1388.36169	219.91121	1691.24268	1558.78003	333.03677	1659.13416	1421.04883	369.37283	1637.42297	1491.26538	414.41092	1517.86292	1479.40552	477.12415	1240.36829	1498.33899	280.58112	1439.93201	1490.16248	235.79631	1268.23145	1429.51611	483.81491	1343.24780	1667.52881	339.42487	1490.24438	1767.23669	311.17282	1300.71814	1795.30481	266.97168	1167.12793	1803.23035	197.22627	1053.23035	1757.74780	98.14141	966.55743	1798.72681	132.30455	948.63013	1799.44202	82.95175	905.37537	1302.96765	347.31955	1476.62354	1223.04578	401.53546	1291.78992	1201.47217	402.91058	1145.86462	1173.55432	382.58737	1028.74500	1178.04211	333.78479	901.74817	1157.19556	386.01614	898.79852	1143.72217	349.78235	837.33716	1619.34167	250.57013	979.46832	1362.12122	235.63945	971.44830	1523.84827	457.05853	1017.71393	1410.81616	454.99841	1016.07727	1656.92834	351.31537	670.50500	1621.51074	412.37518	474.73779	1616.01892	499.05582	298.78442	1576.94897	526.67987	76.53670	1524.18750	562.44434	50.27163	1599.56763	373.97720	33.49538	1275.02747	248.82104	671.40070	1304.09241	177.38870	475.48825	1286.78589	162.59732	289.88168	1307.94104	115.87149	99.59306	1365.92383	123.59494	37.06555	1279.76941	-43.07553	86.10287	1450.77429	299.74710	1791.33948						 
92	0.910	1527.71887	186.47493	1712.36707	1387.21240	210.74599	1689.70422	1558.19067	323.65591	1657.75208	1420.31555	360.29169	1635.90710	1490.47485	405.12488	1516.45435	1478.58862	467.97403	1238.98169	1497.34937	271.41351	1438.37891	1489.14551	226.66833	1266.71948	1428.78735	474.40924	1341.61853	1666.64026	329.94748	1488.86145	1766.50952	300.61972	1299.72095	1795.05249	255.19316	1166.59314	1802.99268	184.04594	1053.55505	1757.56616	84.09590	968.22748	1798.38123	117.84019	949.72736	1799.32983	67.91603	907.28809	1302.17578	338.57095	1475.07141	1222.29773	393.48709	1290.41724	1200.71790	395.70340	1144.59729	1172.89575	375.97830	1027.23633	1177.27271	327.88568	900.04950	1156.61523	380.18362	897.35828	1143.34119	344.43378	835.72839	1618.55530	241.94479	978.00427	1361.51929	226.35849	969.99719	1522.90466	448.19647	1016.44672	1409.77490	445.94247	1014.55316	1656.55334	346.01230	669.76758	1621.01123	408.36050	474.53055	1615.57532	496.91196	299.65579	1576.70813	526.33698	77.20747	1523.81702	562.14240	51.18552	1599.73145	373.92819	33.46514	1275.28577	241.34427	669.50183	1305.60303	168.95465	473.90250	1287.40479	147.63870	289.46906	1308.01758	93.80334	100.41699	1365.62769	99.80682	37.49955	1282.36011	-66.52360	91.83261	1449.86609	290.35379	1789.85181						 
93	0.920	1526.22949	176.83900	1710.71448	1385.84119	201.41754	1688.14075	1557.20313	314.14188	1656.27673	1419.25708	350.87875	1634.57458	1489.55872	395.82703	1515.01221	1478.13843	459.13187	1237.83984	1496.17798	261.96915	1436.92444	1487.81104	217.40498	1265.07202	1428.13477	465.41003	1340.29285	1665.41187	320.27423	1487.37585	1765.70764	290.18457	1298.65881	1794.59766	243.71059	1165.98059	1802.53870	171.25172	1053.66077	1756.94409	70.25075	969.25500	1798.27722	104.00367	950.84088	1799.00842	53.48835	908.85999	1301.12622	329.69318	1473.44604	1221.57764	385.55228	1288.97449	1200.17615	388.29001	1143.13660	1172.26428	369.68008	1025.79675	1176.46704	321.81021	898.30286	1156.01685	374.19370	895.92755	1142.62231	338.78867	834.02216	1617.83643	233.15263	976.45416	1360.96216	217.11600	968.45654	1521.85034	439.25568	1015.19806	1408.53625	436.82928	1013.07404	1656.11780	340.50046	669.13898	1620.45569	404.04214	474.26175	1614.89258	494.42737	300.40250	1576.38184	525.95172	78.00361	1523.40051	561.74548	52.31316	1599.83264	373.85681	33.40335	1274.97546	234.05156	667.31982	1306.72778	160.05023	472.07080	1288.38403	133.70000	288.83920	1308.24390	73.63503	101.28324	1365.41089	78.59989	37.98212	1284.81726	-87.71188	96.82519	1448.82007	281.02945	1788.37219						 
94	0.930	1525.14026	167.54588	1709.37244	1384.68396	192.25427	1686.80835	1556.11365	304.63647	1654.83240	1418.26819	341.63940	1633.06323	1488.52063	386.50589	1513.59399	1477.32361	449.93231	1236.47314	1494.96033	252.83821	1435.39526	1486.80750	208.27968	1263.73914	1427.14001	455.93604	1338.69556	1664.31848	310.70764	1485.94641	1764.73047	279.84216	1297.56433	1793.92065	232.45674	1165.21594	1801.87305	158.88698	1053.58069	1756.69556	57.11134	970.45575	1797.74939	90.67539	951.46124	1798.61804	39.69314	910.12622	1299.85535	320.60822	1471.77832	1220.64905	377.42953	1287.59656	1199.17102	380.67065	1141.77344	1171.29773	362.20505	1024.30640	1175.55237	315.47858	896.59564	1155.23987	367.92563	894.45044	1141.83936	332.85828	832.37256	1617.14636	224.51137	974.76221	1360.36389	207.76184	966.93005	1520.65466	430.24042	1013.92645	1407.18152	427.57123	1011.59399	1655.63464	334.66812	668.50806	1619.87500	399.39456	474.09875	1614.13989	491.78833	301.16269	1576.14050	525.53284	78.96339	1522.84338	561.24548	53.31828	1599.88086	373.71359	33.24206	1274.97327	225.82944	665.33142	1308.05798	150.90494	470.57288	1289.35876	120.55981	288.17783	1308.76782	55.73240	101.99859	1365.57483	60.01082	38.46606	1287.21350	-106.38010	100.50119	1447.74060	271.65515	1786.97046	-3356.96631	2845.83325	1033.82715			 
95	0.940	1523.50635	157.91141	1707.80200	1383.32275	182.97572	1685.45313	1554.87561	295.10110	1653.32739	1417.07642	332.31354	1631.64624	1487.41467	377.10251	1512.17126	1476.31030	440.58560	1235.05493	1493.67078	243.45525	1433.97681	1485.56860	198.91650	1262.29260	1426.56555	446.96176	1337.38342	1663.32190	301.31693	1484.63110	1763.49768	269.59647	1296.32874	1792.96716	221.46275	1164.30811	1801.12439	146.98024	1053.30884	1756.24072	44.26575	971.33356	1796.96191	77.85834	951.77368	1797.75879	26.06459	910.79834	1298.74817	311.71027	1470.25061	1219.83923	369.43262	1286.20532	1198.46252	372.86630	1140.28125	1170.46973	355.20471	1022.80560	1174.59729	308.79181	894.91040	1154.36914	361.43692	893.01483	1140.94958	326.69135	830.67474	1616.52112	215.65932	973.03644	1359.78284	198.30336	965.46979	1519.28357	421.08453	1012.62885	1405.65576	418.25403	1010.17743	1655.01379	328.49246	667.79321	1619.32495	394.34317	473.73877	1613.47937	488.83914	302.08615	1575.87329	525.03699	79.91196	1522.75073	561.03082	54.92634	1600.06921	373.69952	33.27114	1274.95911	216.58887	663.67682	1308.36389	140.12480	469.34106	1290.17700	107.85800	287.55408	1309.87439	40.39380	102.31120	1366.51697	44.45543	38.53152	1289.73657	-121.89912	102.37692	1446.64563	262.34601	1785.66272						 
96	0.950	1522.05164	148.55283	1706.49561	1381.84766	173.61685	1684.17017	1553.19897	285.39728	1651.79529	1415.68396	322.90878	1630.26343	1486.15198	367.73022	1510.79346	1475.15564	431.16281	1233.65369	1492.14893	233.69914	1432.59631	1484.18835	189.51242	1260.89624	1425.58398	437.61459	1335.88696	1661.84363	291.50909	1483.11096	1762.23059	259.49506	1295.15430	1791.51086	210.60434	1163.14832	1800.16943	135.54070	1052.85474	1755.20776	31.77395	971.38019	1796.01172	65.37190	951.70282	1797.55005	13.66120	911.60394	1297.40137	302.71555	1468.69507	1218.34045	361.03415	1284.97974	1197.43677	364.90070	1138.84839	1170.02869	347.66168	1021.35919	1173.50537	302.02768	893.12170	1153.53003	354.68854	891.55176	1139.88806	320.35242	828.93750	1616.01111	206.94810	971.41150	1359.08020	188.43488	964.25470	1517.69067	411.90515	1011.36719	1403.98657	408.80249	1008.84308	1654.23511	321.90408	666.98303	1618.70667	388.89224	473.47482	1612.71313	485.37064	302.77173	1575.64258	524.71716	81.24775	1522.41724	560.56207	56.42521	1600.09558	373.53873	33.08111	1274.80823	206.18690	662.31360	1308.75500	128.53435	468.93997	1290.62598	95.56770	287.03491	1311.24951	28.00191	101.95443	1368.27588	32.18884	37.85514	1292.11523	-134.43504	102.12807	1445.27307	253.00154	1784.23889						 
